<svg width="232" height="156" viewBox="0 0 232 156" fill="none" xmlns="http://www.w3.org/2000/svg">
<g filter="url(#filter0_f_110_6)">
<path d="M90.34 103.16C90.34 107.267 90.8167 111.63 91.77 116.25C92.7233 120.943 93.7133 123.803 94.74 124.83C94.74 125.05 94.4833 125.16 93.97 125.16C90.5967 125.16 87.7 123.84 85.28 121.2C80.88 116.287 78.68 109.833 78.68 101.84C78.68 98.0267 79.56 93.9933 81.32 89.74C81.76 88.7867 82.4567 87.21 83.41 85.01C84.4367 82.81 85.2067 81.05 85.72 79.73C85.72 79.6567 85.6467 79.62 85.5 79.62C85.1333 79.62 83.9967 80.72 82.09 82.92C80.1833 85.0467 77.7267 87.65 74.72 90.73C71.7133 93.81 68.4133 96.9267 64.82 100.08C61.2267 103.16 57.12 105.8 52.5 108C47.88 110.127 43.4433 111.19 39.19 111.19C35.0833 111.19 32.48 110.273 31.38 108.44C30.5733 107.047 30.17 105.47 30.17 103.71C30.17 100.043 32.0767 95.6067 35.89 90.4C39.63 85.1933 44.2133 80.0967 49.64 75.11C55.0667 70.05 60.4567 65.1733 65.81 60.48C71.2367 55.7867 75.8567 51.57 79.67 47.83C83.4833 44.0167 85.4267 41.34 85.5 39.8C85.5 39.0667 84.95 38.7 83.85 38.7C76.7367 38.7 68.8533 41.1567 60.2 46.07C51.5467 50.91 43.6633 56.96 36.55 64.22C35.89 64.88 35.3767 65.21 35.01 65.21C34.79 65.21 34.68 65.0267 34.68 64.66L34.9 63.56C36.9533 58.1333 39.9967 53.2933 44.03 49.04C48.0633 44.7133 52.28 41.4133 56.68 39.14C65.7 34.52 72.9967 32.21 78.57 32.21C89.79 32.21 95.4 35.73 95.4 42.77C95.4 46.8033 89.7533 53.9167 78.46 64.11C73.6933 68.3633 68.9267 72.58 64.16 76.76C52.7933 86.8067 47.11 93.59 47.11 97.11C47.11 97.4033 47.2567 97.55 47.55 97.55C51.5833 97.55 60.09 92.6733 73.07 82.92C86.1233 73.0933 99.6533 61.4333 113.66 47.94L127.19 34.85C127.85 33.53 128.62 32.87 129.5 32.87C129.867 32.87 130.527 33.2 131.48 33.86C132.433 34.4467 133.093 34.85 133.46 35.07C133.9 35.29 134.34 35.5467 134.78 35.84C135.587 36.5733 135.99 37.1967 135.99 37.71C135.99 38.2233 135.623 38.81 134.89 39.47L108.93 66.2L106.73 68.62C95.8033 80.6467 90.34 92.16 90.34 103.16ZM103.127 87.43C107.16 84.6433 111.377 81.6367 115.777 78.41C113.43 76.7967 111.927 75.22 111.267 73.68C111.047 73.1667 110.937 72.8 110.937 72.58C110.937 71.1133 111.413 70.16 112.367 69.72C113.32 69.2067 114.86 68.95 116.987 68.95C117.793 68.95 120.177 69.94 124.137 71.92C128.097 73.9 130.59 74.89 131.617 74.89C132.717 74.89 134.22 74.5967 136.127 74.01C138.033 73.35 139.537 73.02 140.637 73.02C141.81 73.02 142.653 73.2767 143.167 73.79C145 76.21 145.917 77.6767 145.917 78.19C145.917 78.7033 145.66 79.1433 145.147 79.51C144.707 79.8033 143.203 80.83 140.637 82.59C138.143 84.35 135.687 86.1467 133.267 87.98C130.847 89.8133 128.573 91.8667 126.447 94.14C124.32 96.4133 123.257 98.2467 123.257 99.64C123.257 99.86 123.44 99.97 123.807 99.97C127.767 99.97 141.113 91.94 163.847 75.88C164.36 75.88 164.617 76.3567 164.617 77.31C164.617 78.19 161.72 81.3433 155.927 86.77C150.133 92.1233 143.57 97.4033 136.237 102.61C128.977 107.743 123.697 110.31 120.397 110.31C115.263 110.31 112.697 107.743 112.697 102.61C112.697 99.8233 113.613 97.1467 115.447 94.58C117.353 91.94 121.313 88.42 127.327 84.02C126.08 84.02 124.393 83.7267 122.267 83.14C120.14 82.48 118.783 81.71 118.197 80.83C116.29 82.5167 112.99 85.34 108.297 89.3C107.197 90.1067 105.767 90.51 104.007 90.51C102.247 90.51 101.367 90.2533 101.367 89.74C101.367 89.1533 101.953 88.3833 103.127 87.43ZM183.321 53.55C184.054 53.55 184.531 53.6967 184.751 53.99C185.778 55.2367 186.291 56.2633 186.291 57.07C186.291 57.8033 186.071 58.4633 185.631 59.05C185.191 59.5633 184.641 60.1867 183.981 60.92C183.394 61.58 182.148 62.5333 180.241 63.78C178.408 64.9533 176.611 65.54 174.851 65.54C173.531 65.32 172.871 64.5133 172.871 63.12C172.871 60.92 174.191 58.7933 176.831 56.74C179.471 54.6133 181.634 53.55 183.321 53.55ZM156.921 96.89C156.334 97.9167 156.041 98.8333 156.041 99.64C156.041 100.447 156.481 100.85 157.361 100.85C157.874 100.85 158.754 100.63 160.001 100.19C173.714 93.0033 187.134 84.5333 200.261 74.78C200.921 75.2933 201.251 75.9167 201.251 76.65C201.251 77.3833 200.884 78.08 200.151 78.74C199.418 79.4 198.354 80.3533 196.961 81.6C195.641 82.8467 193.074 85.0833 189.261 88.31C185.448 91.5367 181.891 94.47 178.591 97.11C169.938 104.077 163.558 108.183 159.451 109.43C158.131 109.797 156.701 109.98 155.161 109.98C149.514 109.98 146.691 106.973 146.691 100.96C146.691 98.6133 147.974 95.2767 150.541 90.95C153.108 86.55 155.748 82.7 158.461 79.4C161.174 76.0267 162.971 74.1567 163.851 73.79C165.171 72.9833 166.601 72.58 168.141 72.58C169.681 72.58 171.148 72.8733 172.541 73.46C172.981 73.68 173.201 73.9733 173.201 74.34C173.201 74.7067 172.834 75.2567 172.101 75.99C171.441 76.7233 170.378 77.86 168.911 79.4C167.518 80.94 165.391 83.6167 162.531 87.43C159.744 91.17 157.874 94.3233 156.921 96.89Z" fill="#921376"/>
</g>
<path d="M91.4 100.6C91.4 104.333 91.8333 108.3 92.7 112.5C93.5667 116.767 94.4667 119.367 95.4 120.3C95.4 120.5 95.1667 120.6 94.7 120.6C91.6333 120.6 89 119.4 86.8 117C82.8 112.533 80.8 106.667 80.8 99.4C80.8 95.9333 81.6 92.2667 83.2 88.4C83.6 87.5333 84.2333 86.1 85.1 84.1C86.0333 82.1 86.7333 80.5 87.2 79.3C87.2 79.2333 87.1333 79.2 87 79.2C86.6667 79.2 85.6333 80.2 83.9 82.2C82.1667 84.1333 79.9333 86.5 77.2 89.3C74.4667 92.1 71.4667 94.9333 68.2 97.8C64.9333 100.6 61.2 103 57 105C52.8 106.933 48.7667 107.9 44.9 107.9C41.1667 107.9 38.8 107.067 37.8 105.4C37.0667 104.133 36.7 102.7 36.7 101.1C36.7 97.7667 38.4333 93.7333 41.9 89C45.3 84.2667 49.4667 79.6333 54.4 75.1C59.3333 70.5 64.2333 66.0667 69.1 61.8C74.0333 57.5333 78.2333 53.7 81.7 50.3C85.1667 46.8333 86.9333 44.4 87 43C87 42.3333 86.5 42 85.5 42C79.0333 42 71.8667 44.2333 64 48.7C56.1333 53.1 48.9667 58.6 42.5 65.2C41.9 65.8 41.4333 66.1 41.1 66.1C40.9 66.1 40.8 65.9333 40.8 65.6L41 64.6C42.8667 59.6667 45.6333 55.2667 49.3 51.4C52.9667 47.4667 56.8 44.4667 60.8 42.4C69 38.2 75.6333 36.1 80.7 36.1C90.9 36.1 96 39.3 96 45.7C96 49.3667 90.8667 55.8333 80.6 65.1C76.2667 68.9667 71.9333 72.8 67.6 76.6C57.2667 85.7333 52.1 91.9 52.1 95.1C52.1 95.3667 52.2333 95.5 52.5 95.5C56.1667 95.5 63.9 91.0667 75.7 82.2C87.5667 73.2667 99.8667 62.6667 112.6 50.4L124.9 38.5C125.5 37.3 126.2 36.7 127 36.7C127.333 36.7 127.933 37 128.8 37.6C129.667 38.1333 130.267 38.5 130.6 38.7C131 38.9 131.4 39.1333 131.8 39.4C132.533 40.0667 132.9 40.6333 132.9 41.1C132.9 41.5667 132.567 42.1 131.9 42.7L108.3 67L106.3 69.2C96.3667 80.1333 91.4 90.6 91.4 100.6ZM103.024 86.3C106.691 83.7667 110.524 81.0333 114.524 78.1C112.391 76.6333 111.024 75.2 110.424 73.8C110.224 73.3333 110.124 73 110.124 72.8C110.124 71.4667 110.558 70.6 111.424 70.2C112.291 69.7333 113.691 69.5 115.624 69.5C116.358 69.5 118.524 70.4 122.124 72.2C125.724 74 127.991 74.9 128.924 74.9C129.924 74.9 131.291 74.6333 133.024 74.1C134.758 73.5 136.124 73.2 137.124 73.2C138.191 73.2 138.958 73.4333 139.424 73.9C141.091 76.1 141.924 77.4333 141.924 77.9C141.924 78.3667 141.691 78.7667 141.224 79.1C140.824 79.3667 139.458 80.3 137.124 81.9C134.858 83.5 132.624 85.1333 130.424 86.8C128.224 88.4667 126.158 90.3333 124.224 92.4C122.291 94.4667 121.324 96.1333 121.324 97.4C121.324 97.6 121.491 97.7 121.824 97.7C125.424 97.7 137.558 90.4 158.224 75.8C158.691 75.8 158.924 76.2333 158.924 77.1C158.924 77.9 156.291 80.7667 151.024 85.7C145.758 90.5667 139.791 95.3667 133.124 100.1C126.524 104.767 121.724 107.1 118.724 107.1C114.058 107.1 111.724 104.767 111.724 100.1C111.724 97.5667 112.558 95.1333 114.224 92.8C115.958 90.4 119.558 87.2 125.024 83.2C123.891 83.2 122.358 82.9333 120.424 82.4C118.491 81.8 117.258 81.1 116.724 80.3C114.991 81.8333 111.991 84.4 107.724 88C106.724 88.7333 105.424 89.1 103.824 89.1C102.224 89.1 101.424 88.8667 101.424 88.4C101.424 87.8667 101.958 87.1667 103.024 86.3ZM175.928 55.5C176.595 55.5 177.028 55.6333 177.228 55.9C178.161 57.0333 178.628 57.9667 178.628 58.7C178.628 59.3667 178.428 59.9667 178.028 60.5C177.628 60.9667 177.128 61.5333 176.528 62.2C175.995 62.8 174.861 63.6667 173.128 64.8C171.461 65.8667 169.828 66.4 168.228 66.4C167.028 66.2 166.428 65.4667 166.428 64.2C166.428 62.2 167.628 60.2667 170.028 58.4C172.428 56.4667 174.395 55.5 175.928 55.5ZM151.928 94.9C151.395 95.8333 151.128 96.6667 151.128 97.4C151.128 98.1333 151.528 98.5 152.328 98.5C152.795 98.5 153.595 98.3 154.728 97.9C167.195 91.3667 179.395 83.6667 191.328 74.8C191.928 75.2667 192.228 75.8333 192.228 76.5C192.228 77.1667 191.895 77.8 191.228 78.4C190.561 79 189.595 79.8667 188.328 81C187.128 82.1333 184.795 84.1667 181.328 87.1C177.861 90.0333 174.628 92.7 171.628 95.1C163.761 101.433 157.961 105.167 154.228 106.3C153.028 106.633 151.728 106.8 150.328 106.8C145.195 106.8 142.628 104.067 142.628 98.6C142.628 96.4667 143.795 93.4333 146.128 89.5C148.461 85.5 150.861 82 153.328 79C155.795 75.9333 157.428 74.2333 158.228 73.9C159.428 73.1667 160.728 72.8 162.128 72.8C163.528 72.8 164.861 73.0667 166.128 73.6C166.528 73.8 166.728 74.0667 166.728 74.4C166.728 74.7333 166.395 75.2333 165.728 75.9C165.128 76.5667 164.161 77.6 162.828 79C161.561 80.4 159.628 82.8333 157.028 86.3C154.495 89.7 152.795 92.5667 151.928 94.9Z" fill="white"/>
<path d="M115.507 120.088C115.302 120.088 115.144 120.029 115.034 119.912C114.924 119.795 114.869 119.633 114.869 119.428V112.817C114.869 112.604 114.928 112.443 115.045 112.333C115.162 112.216 115.324 112.157 115.529 112.157C115.712 112.157 115.855 112.194 115.958 112.267C116.068 112.333 116.167 112.45 116.255 112.619L118.972 117.646H118.62L121.337 112.619C121.425 112.45 121.52 112.333 121.623 112.267C121.726 112.194 121.869 112.157 122.052 112.157C122.257 112.157 122.415 112.216 122.525 112.333C122.635 112.443 122.69 112.604 122.69 112.817V119.428C122.69 119.633 122.635 119.795 122.525 119.912C122.422 120.029 122.265 120.088 122.052 120.088C121.847 120.088 121.689 120.029 121.579 119.912C121.469 119.795 121.414 119.633 121.414 119.428V114.335H121.656L119.346 118.548C119.273 118.673 119.196 118.764 119.115 118.823C119.034 118.882 118.924 118.911 118.785 118.911C118.646 118.911 118.532 118.882 118.444 118.823C118.356 118.757 118.279 118.665 118.213 118.548L115.881 114.324H116.145V119.428C116.145 119.633 116.09 119.795 115.98 119.912C115.877 120.029 115.72 120.088 115.507 120.088ZM127.62 120.11C127.084 120.11 126.611 120.04 126.201 119.901C125.797 119.762 125.456 119.556 125.178 119.285C124.899 119.006 124.69 118.662 124.551 118.251C124.411 117.84 124.342 117.364 124.342 116.821V112.872C124.342 112.63 124.4 112.45 124.518 112.333C124.642 112.216 124.818 112.157 125.046 112.157C125.273 112.157 125.445 112.216 125.563 112.333C125.687 112.45 125.75 112.63 125.75 112.872V116.81C125.75 117.507 125.907 118.031 126.223 118.383C126.545 118.728 127.011 118.9 127.62 118.9C128.228 118.9 128.69 118.728 129.006 118.383C129.321 118.031 129.479 117.507 129.479 116.81V112.872C129.479 112.63 129.537 112.45 129.655 112.333C129.779 112.216 129.955 112.157 130.183 112.157C130.403 112.157 130.571 112.216 130.689 112.333C130.813 112.45 130.876 112.63 130.876 112.872V116.821C130.876 117.54 130.751 118.145 130.502 118.636C130.26 119.127 129.897 119.498 129.413 119.747C128.929 119.989 128.331 120.11 127.62 120.11ZM135.191 120.11C134.868 120.11 134.546 120.084 134.223 120.033C133.9 119.989 133.596 119.919 133.31 119.824C133.024 119.721 132.767 119.597 132.54 119.45C132.408 119.362 132.316 119.256 132.265 119.131C132.214 119.006 132.195 118.885 132.21 118.768C132.232 118.643 132.28 118.537 132.353 118.449C132.434 118.354 132.533 118.295 132.65 118.273C132.767 118.251 132.896 118.284 133.035 118.372C133.358 118.563 133.699 118.702 134.058 118.79C134.417 118.878 134.795 118.922 135.191 118.922C135.77 118.922 136.192 118.827 136.456 118.636C136.72 118.438 136.852 118.185 136.852 117.877C136.852 117.62 136.757 117.419 136.566 117.272C136.383 117.125 136.064 117.004 135.609 116.909L134.399 116.656C133.702 116.509 133.182 116.264 132.837 115.919C132.5 115.567 132.331 115.105 132.331 114.533C132.331 114.174 132.404 113.847 132.551 113.554C132.698 113.261 132.903 113.008 133.167 112.795C133.438 112.582 133.757 112.421 134.124 112.311C134.498 112.194 134.909 112.135 135.356 112.135C135.796 112.135 136.214 112.19 136.61 112.3C137.006 112.41 137.362 112.571 137.677 112.784C137.794 112.865 137.871 112.964 137.908 113.081C137.952 113.198 137.963 113.316 137.941 113.433C137.919 113.543 137.868 113.638 137.787 113.719C137.706 113.8 137.604 113.847 137.479 113.862C137.362 113.877 137.226 113.84 137.072 113.752C136.801 113.598 136.526 113.488 136.247 113.422C135.968 113.356 135.668 113.323 135.345 113.323C135.008 113.323 134.718 113.371 134.476 113.466C134.234 113.561 134.047 113.697 133.915 113.873C133.79 114.042 133.728 114.243 133.728 114.478C133.728 114.742 133.816 114.955 133.992 115.116C134.168 115.27 134.469 115.391 134.894 115.479L136.093 115.732C136.819 115.886 137.358 116.128 137.71 116.458C138.069 116.788 138.249 117.228 138.249 117.778C138.249 118.13 138.176 118.449 138.029 118.735C137.89 119.021 137.684 119.267 137.413 119.472C137.149 119.677 136.83 119.835 136.456 119.945C136.082 120.055 135.66 120.11 135.191 120.11ZM140.161 120.088C139.934 120.088 139.758 120.026 139.633 119.901C139.516 119.769 139.457 119.589 139.457 119.362V112.883C139.457 112.648 139.516 112.469 139.633 112.344C139.758 112.219 139.934 112.157 140.161 112.157C140.389 112.157 140.561 112.219 140.678 112.344C140.803 112.469 140.865 112.648 140.865 112.883V119.362C140.865 119.589 140.807 119.769 140.689 119.901C140.572 120.026 140.396 120.088 140.161 120.088ZM146.17 120.11C145.363 120.11 144.67 119.949 144.091 119.626C143.519 119.296 143.079 118.834 142.771 118.24C142.463 117.639 142.309 116.931 142.309 116.117C142.309 115.508 142.397 114.962 142.573 114.478C142.749 113.987 143.002 113.569 143.332 113.224C143.662 112.872 144.065 112.604 144.542 112.421C145.026 112.23 145.569 112.135 146.17 112.135C146.573 112.135 146.969 112.186 147.358 112.289C147.747 112.392 148.088 112.538 148.381 112.729C148.535 112.824 148.638 112.942 148.689 113.081C148.74 113.213 148.751 113.345 148.722 113.477C148.693 113.602 148.63 113.708 148.535 113.796C148.447 113.884 148.333 113.935 148.194 113.95C148.062 113.957 147.915 113.91 147.754 113.807C147.527 113.66 147.281 113.554 147.017 113.488C146.753 113.422 146.485 113.389 146.214 113.389C145.693 113.389 145.253 113.495 144.894 113.708C144.535 113.921 144.263 114.229 144.08 114.632C143.897 115.035 143.805 115.53 143.805 116.117C143.805 116.696 143.897 117.191 144.08 117.602C144.263 118.013 144.535 118.324 144.894 118.537C145.253 118.75 145.693 118.856 146.214 118.856C146.493 118.856 146.768 118.823 147.039 118.757C147.31 118.684 147.567 118.574 147.809 118.427C147.97 118.332 148.113 118.291 148.238 118.306C148.37 118.313 148.48 118.357 148.568 118.438C148.656 118.519 148.715 118.621 148.744 118.746C148.773 118.863 148.766 118.988 148.722 119.12C148.678 119.245 148.59 119.355 148.458 119.45C148.165 119.663 147.813 119.828 147.402 119.945C146.999 120.055 146.588 120.11 146.17 120.11Z" fill="white"/>
<defs>
<filter id="filter0_f_110_6" x="0.170044" y="2.20999" width="231.081" height="152.95" filterUnits="userSpaceOnUse" color-interpolation-filters="sRGB">
<feFlood flood-opacity="0" result="BackgroundImageFix"/>
<feBlend mode="normal" in="SourceGraphic" in2="BackgroundImageFix" result="shape"/>
<feGaussianBlur stdDeviation="15" result="effect1_foregroundBlur_110_6"/>
</filter>
</defs>
</svg>
